<?xml version="1.0" standalone="no"?><!DOCTYPE svg PUBLIC "-//W3C//DTD SVG 1.1//EN" "http://www.w3.org/Graphics/SVG/1.1/DTD/svg11.dtd"><svg t="1742374241401" class="icon" viewBox="0 0 1044 1024" version="1.1" xmlns="http://www.w3.org/2000/svg" p-id="5091" xmlns:xlink="http://www.w3.org/1999/xlink" width="203.90625" height="200"><path d="M172.19783 394.37681c-77.778397 92.035628-120.612275 221.627595-120.612275 364.900534a23.547854 23.547854 0 0 0 23.539562 23.539563h894.735547a23.547854 23.547854 0 0 0 23.539563-23.539563c0-140.192648-46.121457-269.904842-129.869733-365.240486-86.588113-98.569328-207.702024-152.857911-341.037603-152.857911-144.466915 0-265.597409 52.978526-350.295061 153.197863z" fill="#9771FF" p-id="5092"></path><path d="M523.094024 759.277344L775.420891 320.897555s127.817587 71.746332 170.174704 208.025392l-422.501571 230.354397" fill="#B786FF" p-id="5093"></path><path d="M523.094024 762.258138l-0.596988-513.940211s143.654348-20.413668 252.928 72.579628l-252.331012 441.360583z" fill="#FF7FED" p-id="5094"></path><path d="M523.094024 762.258138l-0.596988-513.940211S404.086154 229.467206 263.375287 315.213733l259.718737 447.044405z" fill="#FF8282" p-id="5095"></path><path d="M496.208842 777.87932L107.65681 514.450138s-56.431935 166.659109-56.071255 244.827206l444.623287 18.601976z" fill="#72E07C" p-id="5096"></path><path d="M523.094024 759.277344L266.497036 320.172049S144.740534 380.20664 107.65681 514.450138l415.437214 244.827206" fill="#FFB300" p-id="5097"></path><path d="M966.32434 494.504939c-25.027887-62.696162-65.523563-110.882202-101.367708-144.334251-32.830186-32.82604-69.565668-60.270899-109.348276-81.903417-41.610883-25.488065-84.875919-39.040518-122.74319-46.034397-35.578818-8.005441-72.505004-12.147045-110.372275-12.147044-153.906785 0-283.250008 56.784324-374.041911 164.217263-82.512842 97.64068-127.958543 234.35919-127.958543 384.970105 0 30.127158 24.509668 54.63268 54.63268 54.632681h894.735547c30.127158 0 54.63268-24.505522 54.63268-54.632681 0-94.92936-20.206381-185.406186-58.169004-264.768259z m-241.597668-172.148081a255.792713 255.792713 0 0 1 10.177814 6.600033l-180.8583 314.214607-0.427012-365.634332a355.580891 355.580891 0 0 1 65.618915 5.418494c37.108599 8.378559 72.492567 21.603498 105.488583 39.401198z m115.442526 92.201458c25.260049 28.750769 46.851109 60.892761 64.565895 95.642429l-173.669571 100.273231-124.049101 67.629603 178.83932-312.805053a424.682235 424.682235 0 0 1 40.039644 33.816875 425.337263 425.337263 0 0 1 14.273813 15.442915z m-348.305101 232.054154L306.030899 326.747206c79.979789-42.050332 149.052113-49.011045 185.406186-49.093959l0.427012 368.959223z m-236.432065-283.171239l178.457911 307.175125-288.93383-170.274202c26.661312-70.233134 79.295741-115.206219 110.475919-136.900923z m-141.270542 198.374089l333.484048 189.908469H82.72013c0.746235-67.733247 11.570785-131.950899 31.44136-189.908469z m487.739077 189.904324l329.325862-179.552389c19.596955 55.801781 30.247385 116.458235 31.030931 179.552389h-360.356793z" fill="#6E6E96" p-id="5098"></path></svg>